<mxfile host="app.diagrams.net" agent="Mozilla/5.0 (Windows NT 10.0; Win64; x64) AppleWebKit/537.36 (KHTML, like Gecko) Chrome/140.0.0.0 Safari/537.36" version="28.2.3">
  <diagram name="PÃ¡gina-1" id="0J0bSGs5GxgP5nthbGjo">
    <mxGraphModel dx="1226" dy="620" grid="1" gridSize="10" guides="1" tooltips="1" connect="1" arrows="1" fold="1" page="1" pageScale="1" pageWidth="827" pageHeight="1169" math="0" shadow="0">
      <root>
        <mxCell id="0" />
        <mxCell id="1" parent="0" />
        <mxCell id="eKYRYJunRC3Gf1hyQ8N0-2" value="CLIENTE" style="rounded=0;whiteSpace=wrap;html=1;fillColor=#dae8fc;strokeColor=#6c8ebf;gradientColor=#7ea6e0;" vertex="1" parent="1">
          <mxGeometry x="330" y="230" width="120" height="60" as="geometry" />
        </mxCell>
        <mxCell id="eKYRYJunRC3Gf1hyQ8N0-3" style="rounded=0;orthogonalLoop=1;jettySize=auto;html=1;entryX=0;entryY=0;entryDx=0;entryDy=0;endArrow=none;endFill=0;" edge="1" parent="1" source="eKYRYJunRC3Gf1hyQ8N0-4" target="eKYRYJunRC3Gf1hyQ8N0-2">
          <mxGeometry relative="1" as="geometry" />
        </mxCell>
        <mxCell id="eKYRYJunRC3Gf1hyQ8N0-4" value="nombre y apellido" style="ellipse;whiteSpace=wrap;html=1;dashed=1;" vertex="1" parent="1">
          <mxGeometry x="170" y="120" width="120" height="80" as="geometry" />
        </mxCell>
        <mxCell id="eKYRYJunRC3Gf1hyQ8N0-5" style="rounded=0;orthogonalLoop=1;jettySize=auto;html=1;fillColor=default;strokeColor=default;endArrow=none;endFill=0;" edge="1" parent="1" source="eKYRYJunRC3Gf1hyQ8N0-6" target="eKYRYJunRC3Gf1hyQ8N0-4">
          <mxGeometry relative="1" as="geometry" />
        </mxCell>
        <mxCell id="eKYRYJunRC3Gf1hyQ8N0-6" value="nombre" style="ellipse;whiteSpace=wrap;html=1;" vertex="1" parent="1">
          <mxGeometry x="80" y="20" width="120" height="80" as="geometry" />
        </mxCell>
        <mxCell id="eKYRYJunRC3Gf1hyQ8N0-7" style="rounded=0;orthogonalLoop=1;jettySize=auto;html=1;strokeColor=default;align=center;verticalAlign=middle;fontFamily=Helvetica;fontSize=11;fontColor=default;labelBackgroundColor=default;endArrow=none;endFill=0;fillColor=default;" edge="1" parent="1" source="eKYRYJunRC3Gf1hyQ8N0-8" target="eKYRYJunRC3Gf1hyQ8N0-4">
          <mxGeometry relative="1" as="geometry" />
        </mxCell>
        <mxCell id="eKYRYJunRC3Gf1hyQ8N0-8" value="apellido" style="ellipse;whiteSpace=wrap;html=1;" vertex="1" parent="1">
          <mxGeometry x="260" y="20" width="120" height="80" as="geometry" />
        </mxCell>
        <mxCell id="eKYRYJunRC3Gf1hyQ8N0-9" style="edgeStyle=none;shape=connector;rounded=0;orthogonalLoop=1;jettySize=auto;html=1;entryX=0.75;entryY=0;entryDx=0;entryDy=0;strokeColor=default;align=center;verticalAlign=middle;fontFamily=Helvetica;fontSize=11;fontColor=default;labelBackgroundColor=default;endArrow=none;endFill=0;fillColor=default;" edge="1" parent="1" source="eKYRYJunRC3Gf1hyQ8N0-10" target="eKYRYJunRC3Gf1hyQ8N0-2">
          <mxGeometry relative="1" as="geometry" />
        </mxCell>
        <mxCell id="eKYRYJunRC3Gf1hyQ8N0-10" value="id_cliente" style="ellipse;whiteSpace=wrap;html=1;fontStyle=5" vertex="1" parent="1">
          <mxGeometry x="450" y="120" width="120" height="80" as="geometry" />
        </mxCell>
        <mxCell id="eKYRYJunRC3Gf1hyQ8N0-12" value="" style="group" vertex="1" connectable="0" parent="1">
          <mxGeometry x="40" y="380" width="120" height="80" as="geometry" />
        </mxCell>
        <mxCell id="eKYRYJunRC3Gf1hyQ8N0-13" value="telefonos" style="ellipse;whiteSpace=wrap;html=1;" vertex="1" parent="eKYRYJunRC3Gf1hyQ8N0-12">
          <mxGeometry width="120" height="80" as="geometry" />
        </mxCell>
        <mxCell id="eKYRYJunRC3Gf1hyQ8N0-14" value="telefonos" style="ellipse;whiteSpace=wrap;html=1;" vertex="1" parent="eKYRYJunRC3Gf1hyQ8N0-12">
          <mxGeometry x="10" y="5" width="100" height="70" as="geometry" />
        </mxCell>
        <mxCell id="eKYRYJunRC3Gf1hyQ8N0-15" style="edgeStyle=none;shape=connector;rounded=0;orthogonalLoop=1;jettySize=auto;html=1;entryX=0.25;entryY=1;entryDx=0;entryDy=0;strokeColor=default;align=center;verticalAlign=middle;fontFamily=Helvetica;fontSize=11;fontColor=default;labelBackgroundColor=default;endArrow=none;endFill=0;fillColor=default;" edge="1" parent="1" source="eKYRYJunRC3Gf1hyQ8N0-13" target="eKYRYJunRC3Gf1hyQ8N0-2">
          <mxGeometry relative="1" as="geometry" />
        </mxCell>
        <mxCell id="eKYRYJunRC3Gf1hyQ8N0-16" value="domicilio" style="ellipse;whiteSpace=wrap;html=1;dashed=1;" vertex="1" parent="1">
          <mxGeometry x="340" y="400" width="120" height="80" as="geometry" />
        </mxCell>
        <mxCell id="eKYRYJunRC3Gf1hyQ8N0-17" style="edgeStyle=none;shape=connector;rounded=0;orthogonalLoop=1;jettySize=auto;html=1;entryX=0.587;entryY=1.04;entryDx=0;entryDy=0;entryPerimeter=0;strokeColor=default;align=center;verticalAlign=middle;fontFamily=Helvetica;fontSize=11;fontColor=default;labelBackgroundColor=default;endArrow=none;endFill=0;fillColor=default;" edge="1" parent="1" source="eKYRYJunRC3Gf1hyQ8N0-16" target="eKYRYJunRC3Gf1hyQ8N0-2">
          <mxGeometry relative="1" as="geometry" />
        </mxCell>
        <mxCell id="eKYRYJunRC3Gf1hyQ8N0-18" style="edgeStyle=none;shape=connector;rounded=0;orthogonalLoop=1;jettySize=auto;html=1;entryX=0.317;entryY=0.985;entryDx=0;entryDy=0;strokeColor=default;align=center;verticalAlign=middle;fontFamily=Helvetica;fontSize=11;fontColor=default;labelBackgroundColor=default;endArrow=none;endFill=0;fillColor=default;entryPerimeter=0;" edge="1" parent="1" source="eKYRYJunRC3Gf1hyQ8N0-19" target="eKYRYJunRC3Gf1hyQ8N0-16">
          <mxGeometry relative="1" as="geometry" />
        </mxCell>
        <mxCell id="eKYRYJunRC3Gf1hyQ8N0-19" value="calle" style="ellipse;whiteSpace=wrap;html=1;" vertex="1" parent="1">
          <mxGeometry x="250" y="520" width="120" height="80" as="geometry" />
        </mxCell>
        <mxCell id="eKYRYJunRC3Gf1hyQ8N0-20" style="edgeStyle=none;shape=connector;rounded=0;orthogonalLoop=1;jettySize=auto;html=1;strokeColor=default;align=center;verticalAlign=middle;fontFamily=Helvetica;fontSize=11;fontColor=default;labelBackgroundColor=default;endArrow=none;endFill=0;fillColor=default;" edge="1" parent="1" source="eKYRYJunRC3Gf1hyQ8N0-21" target="eKYRYJunRC3Gf1hyQ8N0-16">
          <mxGeometry relative="1" as="geometry" />
        </mxCell>
        <mxCell id="eKYRYJunRC3Gf1hyQ8N0-21" value="calle_numero" style="ellipse;whiteSpace=wrap;html=1;" vertex="1" parent="1">
          <mxGeometry x="430" y="520" width="120" height="80" as="geometry" />
        </mxCell>
        <mxCell id="eKYRYJunRC3Gf1hyQ8N0-23" style="rounded=0;orthogonalLoop=1;jettySize=auto;html=1;entryX=1;entryY=0.75;entryDx=0;entryDy=0;endArrow=none;endFill=0;" edge="1" parent="1" source="eKYRYJunRC3Gf1hyQ8N0-22" target="eKYRYJunRC3Gf1hyQ8N0-2">
          <mxGeometry relative="1" as="geometry" />
        </mxCell>
        <mxCell id="eKYRYJunRC3Gf1hyQ8N0-22" value="fecha_de_entrada" style="ellipse;whiteSpace=wrap;html=1;" vertex="1" parent="1">
          <mxGeometry x="510" y="280" width="120" height="80" as="geometry" />
        </mxCell>
        <mxCell id="eKYRYJunRC3Gf1hyQ8N0-24" value="" style="group" vertex="1" connectable="0" parent="1">
          <mxGeometry x="40" y="240" width="120" height="80" as="geometry" />
        </mxCell>
        <mxCell id="eKYRYJunRC3Gf1hyQ8N0-25" value="telefonos" style="ellipse;whiteSpace=wrap;html=1;" vertex="1" parent="eKYRYJunRC3Gf1hyQ8N0-24">
          <mxGeometry width="120" height="80" as="geometry" />
        </mxCell>
        <mxCell id="eKYRYJunRC3Gf1hyQ8N0-26" value="mascotas" style="ellipse;whiteSpace=wrap;html=1;" vertex="1" parent="eKYRYJunRC3Gf1hyQ8N0-24">
          <mxGeometry x="10" y="5" width="100" height="70" as="geometry" />
        </mxCell>
        <mxCell id="eKYRYJunRC3Gf1hyQ8N0-27" style="edgeStyle=none;shape=connector;rounded=0;orthogonalLoop=1;jettySize=auto;html=1;entryX=0;entryY=0.5;entryDx=0;entryDy=0;strokeColor=default;align=center;verticalAlign=middle;fontFamily=Helvetica;fontSize=11;fontColor=default;labelBackgroundColor=default;endArrow=none;endFill=0;" edge="1" parent="1" source="eKYRYJunRC3Gf1hyQ8N0-26" target="eKYRYJunRC3Gf1hyQ8N0-2">
          <mxGeometry relative="1" as="geometry" />
        </mxCell>
        <mxCell id="eKYRYJunRC3Gf1hyQ8N0-28" value="MASCOSTA" style="rounded=0;whiteSpace=wrap;html=1;fillColor=#dae8fc;strokeColor=#6c8ebf;gradientColor=#7ea6e0;" vertex="1" parent="1">
          <mxGeometry x="190" y="890" width="120" height="60" as="geometry" />
        </mxCell>
        <mxCell id="eKYRYJunRC3Gf1hyQ8N0-41" style="edgeStyle=none;shape=connector;rounded=0;orthogonalLoop=1;jettySize=auto;html=1;strokeColor=default;align=center;verticalAlign=middle;fontFamily=Helvetica;fontSize=11;fontColor=default;labelBackgroundColor=default;endArrow=none;endFill=0;" edge="1" parent="1" target="eKYRYJunRC3Gf1hyQ8N0-28">
          <mxGeometry relative="1" as="geometry">
            <mxPoint x="180.7954714519367" y="844.329378011995" as="sourcePoint" />
          </mxGeometry>
        </mxCell>
        <mxCell id="eKYRYJunRC3Gf1hyQ8N0-31" style="rounded=0;orthogonalLoop=1;jettySize=auto;html=1;fillColor=default;strokeColor=default;endArrow=none;endFill=0;" edge="1" parent="1" source="eKYRYJunRC3Gf1hyQ8N0-32">
          <mxGeometry relative="1" as="geometry">
            <mxPoint x="119.27899512588056" y="775.6409813907878" as="targetPoint" />
          </mxGeometry>
        </mxCell>
        <mxCell id="eKYRYJunRC3Gf1hyQ8N0-32" value="nombre" style="ellipse;whiteSpace=wrap;html=1;" vertex="1" parent="1">
          <mxGeometry x="90" y="770" width="120" height="80" as="geometry" />
        </mxCell>
        <mxCell id="eKYRYJunRC3Gf1hyQ8N0-44" style="edgeStyle=none;shape=connector;rounded=0;orthogonalLoop=1;jettySize=auto;html=1;entryX=1;entryY=0;entryDx=0;entryDy=0;strokeColor=default;align=center;verticalAlign=middle;fontFamily=Helvetica;fontSize=11;fontColor=default;labelBackgroundColor=default;endArrow=none;endFill=0;" edge="1" parent="1" source="eKYRYJunRC3Gf1hyQ8N0-42" target="eKYRYJunRC3Gf1hyQ8N0-28">
          <mxGeometry relative="1" as="geometry" />
        </mxCell>
        <mxCell id="eKYRYJunRC3Gf1hyQ8N0-42" value="id_mascota" style="ellipse;whiteSpace=wrap;html=1;fontStyle=5" vertex="1" parent="1">
          <mxGeometry x="330" y="770" width="120" height="80" as="geometry" />
        </mxCell>
        <mxCell id="eKYRYJunRC3Gf1hyQ8N0-46" style="edgeStyle=none;shape=connector;rounded=0;orthogonalLoop=1;jettySize=auto;html=1;entryX=1;entryY=0.75;entryDx=0;entryDy=0;strokeColor=default;align=center;verticalAlign=middle;fontFamily=Helvetica;fontSize=11;fontColor=default;labelBackgroundColor=default;endArrow=none;endFill=0;" edge="1" parent="1" source="eKYRYJunRC3Gf1hyQ8N0-45" target="eKYRYJunRC3Gf1hyQ8N0-28">
          <mxGeometry relative="1" as="geometry" />
        </mxCell>
        <mxCell id="eKYRYJunRC3Gf1hyQ8N0-45" value="&lt;span style=&quot;font-weight: normal;&quot;&gt;raza&lt;/span&gt;" style="ellipse;whiteSpace=wrap;html=1;fontStyle=5" vertex="1" parent="1">
          <mxGeometry x="400" y="860" width="120" height="80" as="geometry" />
        </mxCell>
        <mxCell id="eKYRYJunRC3Gf1hyQ8N0-48" style="edgeStyle=none;shape=connector;rounded=0;orthogonalLoop=1;jettySize=auto;html=1;entryX=1;entryY=1;entryDx=0;entryDy=0;strokeColor=default;align=center;verticalAlign=middle;fontFamily=Helvetica;fontSize=11;fontColor=default;labelBackgroundColor=default;endArrow=none;endFill=0;" edge="1" parent="1" source="eKYRYJunRC3Gf1hyQ8N0-47" target="eKYRYJunRC3Gf1hyQ8N0-28">
          <mxGeometry relative="1" as="geometry" />
        </mxCell>
        <mxCell id="eKYRYJunRC3Gf1hyQ8N0-47" value="&lt;span style=&quot;font-weight: normal;&quot;&gt;pelaje&lt;/span&gt;" style="ellipse;whiteSpace=wrap;html=1;fontStyle=5" vertex="1" parent="1">
          <mxGeometry x="290" y="980" width="120" height="80" as="geometry" />
        </mxCell>
        <mxCell id="eKYRYJunRC3Gf1hyQ8N0-49" value="TELEFONO" style="rounded=0;whiteSpace=wrap;html=1;fillColor=#dae8fc;strokeColor=#6c8ebf;gradientColor=#7ea6e0;" vertex="1" parent="1">
          <mxGeometry x="670" y="730" width="120" height="60" as="geometry" />
        </mxCell>
        <mxCell id="eKYRYJunRC3Gf1hyQ8N0-52" style="edgeStyle=none;shape=connector;rounded=0;orthogonalLoop=1;jettySize=auto;html=1;entryX=0.5;entryY=0;entryDx=0;entryDy=0;strokeColor=default;align=center;verticalAlign=middle;fontFamily=Helvetica;fontSize=11;fontColor=default;labelBackgroundColor=default;endArrow=none;endFill=0;" edge="1" parent="1" source="eKYRYJunRC3Gf1hyQ8N0-50" target="eKYRYJunRC3Gf1hyQ8N0-49">
          <mxGeometry relative="1" as="geometry" />
        </mxCell>
        <mxCell id="eKYRYJunRC3Gf1hyQ8N0-50" value="id_telefono" style="ellipse;whiteSpace=wrap;html=1;fontStyle=5" vertex="1" parent="1">
          <mxGeometry x="660" y="570" width="120" height="80" as="geometry" />
        </mxCell>
        <mxCell id="eKYRYJunRC3Gf1hyQ8N0-54" style="edgeStyle=none;shape=connector;rounded=0;orthogonalLoop=1;jettySize=auto;html=1;entryX=0;entryY=0.5;entryDx=0;entryDy=0;strokeColor=default;align=center;verticalAlign=middle;fontFamily=Helvetica;fontSize=11;fontColor=default;labelBackgroundColor=default;endArrow=none;endFill=0;" edge="1" parent="1" source="eKYRYJunRC3Gf1hyQ8N0-53" target="eKYRYJunRC3Gf1hyQ8N0-49">
          <mxGeometry relative="1" as="geometry" />
        </mxCell>
        <mxCell id="eKYRYJunRC3Gf1hyQ8N0-53" value="&lt;span style=&quot;font-weight: normal;&quot;&gt;telefono_cliente&lt;/span&gt;" style="ellipse;whiteSpace=wrap;html=1;fontStyle=5" vertex="1" parent="1">
          <mxGeometry x="480" y="630" width="120" height="80" as="geometry" />
        </mxCell>
        <mxCell id="eKYRYJunRC3Gf1hyQ8N0-55" value="id_cliente" style="ellipse;whiteSpace=wrap;html=1;fontStyle=5" vertex="1" parent="1">
          <mxGeometry x="640" y="820" width="120" height="80" as="geometry" />
        </mxCell>
        <mxCell id="eKYRYJunRC3Gf1hyQ8N0-56" style="edgeStyle=none;shape=connector;rounded=0;orthogonalLoop=1;jettySize=auto;html=1;strokeColor=default;align=center;verticalAlign=middle;fontFamily=Helvetica;fontSize=11;fontColor=default;labelBackgroundColor=default;endArrow=none;endFill=0;" edge="1" parent="1" source="eKYRYJunRC3Gf1hyQ8N0-55" target="eKYRYJunRC3Gf1hyQ8N0-49">
          <mxGeometry relative="1" as="geometry" />
        </mxCell>
        <mxCell id="eKYRYJunRC3Gf1hyQ8N0-58" style="edgeStyle=none;shape=connector;rounded=0;orthogonalLoop=1;jettySize=auto;html=1;entryX=0;entryY=0.75;entryDx=0;entryDy=0;strokeColor=default;align=center;verticalAlign=middle;fontFamily=Helvetica;fontSize=11;fontColor=default;labelBackgroundColor=default;endArrow=none;endFill=0;" edge="1" parent="1" source="eKYRYJunRC3Gf1hyQ8N0-57" target="eKYRYJunRC3Gf1hyQ8N0-28">
          <mxGeometry relative="1" as="geometry" />
        </mxCell>
        <mxCell id="eKYRYJunRC3Gf1hyQ8N0-57" value="id_cliente" style="ellipse;whiteSpace=wrap;html=1;fontStyle=5" vertex="1" parent="1">
          <mxGeometry x="50" y="1000" width="120" height="80" as="geometry" />
        </mxCell>
      </root>
    </mxGraphModel>
  </diagram>
</mxfile>
